<svg xmlns="http://www.w3.org/2000/svg" width="86" height="32" fill="none" viewBox="0 0 86 32">
    <rect width="85" height="31" x=".5" y=".5" stroke="#283455" rx="15.5"/>
    <path fill="#283455" d="M36.728 20.664c-.042.196.042.336.252.336h.56c.112 0 .238-.098.252-.196l1.218-7.21h.056l2.604 7.392c.028.084.154.154.238.154h.252c.084 0 .21-.07.238-.154l2.576-7.392h.056l1.246 7.21c.028.098.14.196.252.196h.56c.21 0 .294-.14.252-.336l-1.806-9.408c-.028-.112-.14-.196-.252-.196h-.224c-.098 0-.21.07-.238.154l-2.73 7.714h-.07l-2.772-7.714c-.028-.084-.14-.154-.238-.154h-.224c-.112 0-.224.084-.252.196l-1.806 9.408zm11.74-2.898c0 1.848 1.176 3.388 3.136 3.388 1.12 0 1.974-.434 2.366-.742.238-.182.182-.252.056-.448l-.168-.238c-.168-.252-.266-.196-.49-.042-.364.238-.896.532-1.75.532-1.176 0-2.086-1.134-2.114-2.212h4.704c.14 0 .28-.112.294-.28.014-.112.028-.28.028-.392 0-1.694-1.232-2.94-2.926-2.94-1.96 0-3.136 1.554-3.136 3.374zm1.05-.588c.126-1.008.994-1.848 2.086-1.848 1.106 0 1.862.896 1.89 1.848h-3.976zm6.571 3.514c0 .168.14.308.308.308h.42c.154 0 .308-.14.308-.308v-4.466s.77-.896 1.988-.896c.952 0 1.372.574 1.372 1.806v3.556c0 .168.14.308.308.308h.42c.154 0 .308-.14.308-.308v-3.416c0-1.666-.462-2.884-2.338-2.884-1.344 0-2.17.826-2.17.826l-.14-.49c-.028-.14-.112-.196-.252-.196h-.224c-.168 0-.308.154-.308.308v5.852zm7.337-2.366c0 1.708.448 2.828 2.31 2.828 1.162 0 1.764-.588 2.002-.84l.126.406c.042.168.112.28.294.28h.224c.154 0 .294-.14.294-.308V14.84c0-.154-.14-.308-.294-.308h-.434c-.168 0-.294.154-.294.308v4.438c-.294.336-.868.938-1.834.938-.938 0-1.358-.588-1.358-1.876v-3.5c0-.154-.14-.308-.308-.308h-.42c-.182 0-.308.154-.308.308v3.486zM16 12c0-.552.448-1 1-1h10c.552 0 1 .448 1 1s-.448 1-1 1H17c-.552 0-1-.448-1-1zM16 20c0-.552.448-1 1-1h10c.552 0 1 .448 1 1s-.448 1-1 1H17c-.552 0-1-.448-1-1z"/>
</svg>